<svg width="802" height="230" viewBox="0 0 802 230" fill="none" xmlns="http://www.w3.org/2000/svg">
<path d="M153.29 130C153.29 150.612 134.647 168 110.768 168C86.8887 168 68.2454 150.612 68.2454 130C68.2454 109.388 86.8887 92 110.768 92C134.647 92 153.29 109.388 153.29 130Z" stroke="white" stroke-width="8"/>
<path d="M110.214 44L110.214 173" stroke="white" stroke-width="8"/>
<path d="M22.1462 176L110.768 37.4244L199.389 176H22.1462Z" stroke="white" stroke-width="8"/>
<path d="M233.191 168V163.86C236.431 163.74 238.951 163.38 240.751 162.78C242.671 162.18 243.991 160.92 244.711 159C245.431 157.08 245.791 154.08 245.791 150V66.3C245.791 62.1 245.311 59.1 244.351 57.3C243.511 55.38 241.891 54.12 239.491 53.52C237.091 52.92 233.491 52.56 228.691 52.44V48.3H245.791C253.951 48.3 260.551 48.18 265.591 47.94C270.751 47.58 274.891 47.4 278.011 47.4C290.491 47.4 300.511 49.86 308.071 54.78C315.631 59.58 319.411 66.48 319.411 75.48C319.411 79.8 318.391 84.06 316.351 88.26C314.431 92.46 311.311 96.24 306.991 99.6C302.671 102.84 297.031 105.3 290.071 106.98C283.111 108.54 274.651 108.84 264.691 107.88V102.48C274.291 103.32 281.791 102.6 287.191 100.32C292.711 97.92 296.611 94.62 298.891 90.42C301.171 86.1 302.311 81.48 302.311 76.56C302.311 70.44 300.931 65.76 298.171 62.52C295.531 59.16 291.991 56.88 287.551 55.68C283.231 54.48 278.551 53.88 273.511 53.88C269.431 53.88 266.311 54.6 264.151 56.04C262.111 57.48 261.091 60.9 261.091 66.3V150C261.091 154.08 261.511 157.08 262.351 159C263.311 160.92 265.111 162.18 267.751 162.78C270.511 163.38 274.531 163.74 279.811 163.86V168H233.191ZM329.096 168V163.86C331.856 163.74 334.016 163.38 335.576 162.78C337.136 162.18 338.216 160.92 338.816 159C339.536 157.08 339.896 154.02 339.896 149.82V108.6C339.896 105.48 339.416 103.44 338.456 102.48C337.496 101.52 336.176 101.04 334.496 101.04C333.176 101.04 331.856 101.22 330.536 101.58C329.336 101.82 328.076 102.24 326.756 102.84L324.956 98.7L353.936 85.2L355.016 86.28C354.776 87.36 354.476 89.7 354.116 93.3C353.876 96.78 353.756 100.62 353.756 104.82H354.116C359.036 97.5 364.436 92.58 370.316 90.06C376.316 87.54 382.556 86.52 389.036 87C389.996 95.88 389.996 104.76 389.036 113.64H384.896C384.416 108.72 383.276 105.3 381.476 103.38C379.796 101.34 377.396 100.32 374.276 100.32C370.316 100.32 366.776 101.16 363.656 102.84C360.536 104.52 357.416 107.28 354.296 111.12V149.82C354.296 154.02 354.716 157.08 355.556 159C356.396 160.92 358.016 162.18 360.416 162.78C362.936 163.38 366.596 163.74 371.396 163.86V168H329.096ZM439.909 86.1C446.869 86.1 453.229 87.84 458.989 91.32C464.869 94.68 469.609 99.42 473.209 105.54C476.809 111.66 478.609 118.8 478.609 126.96C478.609 134.16 477.349 140.52 474.829 146.04C472.429 151.44 469.189 156 465.109 159.72C461.029 163.32 456.529 166.08 451.609 168C446.809 169.8 442.069 170.7 437.389 170.7C430.549 170.7 424.189 169.02 418.309 165.66C412.429 162.18 407.689 157.38 404.089 151.26C400.609 145.14 398.869 138 398.869 129.84C398.869 122.64 400.069 116.34 402.469 110.94C404.989 105.42 408.289 100.86 412.369 97.26C416.449 93.54 420.889 90.78 425.689 88.98C430.489 87.06 435.229 86.1 439.909 86.1ZM440.449 163.5C447.529 163.5 453.109 160.98 457.189 155.94C461.269 150.78 463.309 142.86 463.309 132.18C463.309 124.86 462.169 118.26 459.889 112.38C457.729 106.5 454.669 101.88 450.709 98.52C446.749 95.04 442.129 93.3 436.849 93.3C429.889 93.3 424.369 95.88 420.289 101.04C416.209 106.08 414.169 113.94 414.169 124.62C414.169 131.82 415.249 138.36 417.409 144.24C419.689 150.12 422.809 154.8 426.769 158.28C430.729 161.76 435.289 163.5 440.449 163.5ZM520.037 85.2L521.117 86.28C520.997 87.24 520.817 89.82 520.577 94.02C520.457 98.22 520.397 103.2 520.397 108.96V170.34C520.397 182.1 517.697 191.64 512.297 198.96C506.897 206.28 498.977 210.06 488.537 210.3V206.34C494.057 205.38 498.317 202.02 501.317 196.26C504.437 190.62 505.997 181.08 505.997 167.64V109.14C505.997 105.78 505.457 103.62 504.377 102.66C503.417 101.58 502.097 101.04 500.417 101.04C498.857 101.04 497.177 101.34 495.377 101.94C493.697 102.42 492.137 102.96 490.697 103.56L488.897 99.42L520.037 85.2ZM512.657 68.28C510.017 68.28 507.797 67.38 505.997 65.58C504.197 63.78 503.297 61.56 503.297 58.92C503.297 56.4 504.197 54.24 505.997 52.44C507.797 50.64 510.017 49.74 512.657 49.74C515.297 49.74 517.517 50.64 519.317 52.44C521.117 54.24 522.017 56.4 522.017 58.92C522.017 61.56 521.117 63.78 519.317 65.58C517.517 67.38 515.297 68.28 512.657 68.28ZM582.538 170.7C576.418 170.7 570.538 169.26 564.898 166.38C559.378 163.5 554.818 159.18 551.218 153.42C547.738 147.54 545.998 140.1 545.998 131.1C545.998 121.98 547.798 114.06 551.398 107.34C554.998 100.62 559.798 95.4 565.798 91.68C571.798 87.96 578.338 86.1 585.418 86.1C590.578 86.1 595.318 87.12 599.638 89.16C604.078 91.2 607.618 94.32 610.258 98.52C613.018 102.72 614.398 108.06 614.398 114.54L560.398 121.56C560.398 122.16 560.398 122.82 560.398 123.54C560.398 134.58 562.918 143.22 567.958 149.46C572.998 155.7 579.718 158.82 588.118 158.82C592.918 158.82 597.358 157.86 601.438 155.94C605.518 153.9 609.178 151.38 612.418 148.38L615.298 151.26C611.938 157.02 607.438 161.7 601.798 165.3C596.278 168.9 589.858 170.7 582.538 170.7ZM581.638 92.76C575.398 92.76 570.598 94.98 567.238 99.42C563.878 103.86 561.778 109.32 560.938 115.8L598.198 110.94C597.478 105.78 595.918 101.46 593.518 97.98C591.118 94.5 587.158 92.76 581.638 92.76ZM665.682 170.7C659.442 170.7 653.502 169.26 647.862 166.38C642.342 163.38 637.842 158.94 634.362 153.06C630.882 147.06 629.142 139.62 629.142 130.74C629.142 121.26 631.122 113.22 635.082 106.62C639.162 99.9 644.502 94.8 651.102 91.32C657.702 87.84 664.722 86.1 672.162 86.1C675.882 86.1 679.902 86.58 684.222 87.54C688.662 88.5 692.622 90.18 696.102 92.58V116.16H691.962C691.362 109.92 689.802 105.12 687.282 101.76C684.762 98.4 681.822 96.06 678.462 94.74C675.222 93.42 671.982 92.76 668.742 92.76C660.822 92.76 654.702 95.76 650.382 101.76C646.062 107.64 643.902 115.02 643.902 123.9C643.902 130.98 645.102 137.16 647.502 142.44C650.022 147.6 653.442 151.62 657.762 154.5C662.082 157.38 666.942 158.82 672.342 158.82C676.542 158.82 680.682 157.92 684.762 156.12C688.962 154.2 692.742 151.62 696.102 148.38L698.982 151.26C695.622 156.9 691.062 161.58 685.302 165.3C679.542 168.9 673.002 170.7 665.682 170.7ZM763.549 152.34L766.429 155.22C763.549 159.54 760.249 163.2 756.529 166.2C752.809 169.2 747.949 170.7 741.949 170.7C737.149 170.7 733.309 169.74 730.429 167.82C727.669 165.9 725.689 163.38 724.489 160.26C723.289 157.02 722.689 153.54 722.689 149.82V96.18H710.269V88.8H722.689V64.14L737.989 61.44C737.629 66 737.389 70.56 737.269 75.12C737.149 79.68 737.089 84.24 737.089 88.8H763.729V96.18H742.669C740.629 96.18 739.189 96.6 738.349 97.44C737.509 98.28 737.089 99.72 737.089 101.76V146.04C737.089 149.88 737.749 153.18 739.069 155.94C740.509 158.7 743.389 160.08 747.709 160.08C750.229 160.08 752.809 159.48 755.449 158.28C758.089 156.96 760.789 154.98 763.549 152.34Z" fill="white"/>
</svg>
